<svg id="music-2" xmlns="http://www.w3.org/2000/svg" viewBox="0 0 24 24" class="icon line" width="32" height="32">
<polyline id="primary" points="10 18 10 5 21 3 21 16" fill="none" stroke="#000" stroke-linecap="round" stroke-linejoin="round" stroke-width="2">
</polyline><path id="primary-2" data-name="primary" d="M10,18a3.28,3.28,0,0,1-3.5,3A3.28,3.28,0,0,1,3,18a3.28,3.28,0,0,1,3.5-3A3.28,3.28,0,0,1,10,18Zm7.5-5A3.28,3.28,0,0,0,14,16a3.28,3.28,0,0,0,3.5,3A3.28,3.28,0,0,0,21,16,3.28,3.28,0,0,0,17.5,13ZM21,7,10,9" fill="none" stroke="#000" stroke-linecap="round" stroke-linejoin="round" stroke-width="2">
</path></svg>
